<svg 
 xmlns="http://www.w3.org/2000/svg"
 xmlns:xlink="http://www.w3.org/1999/xlink"
 width="2.822cm" height="2.822cm">
<path fill-rule="evenodd"  stroke="rgb(172, 172, 172)" stroke-width="2px" stroke-dasharray="8, 8, 8, 8, 8, 8" stroke-linecap="butt" stroke-linejoin="miter" fill="none"
 d="M13.000,1.000 L66.000,1.000 C72.627,1.000 78.000,6.372 78.000,13.000 L78.000,66.000 C78.000,72.627 72.627,78.000 66.000,78.000 L13.000,78.000 C6.372,78.000 1.000,72.627 1.000,66.000 L1.000,13.000 C1.000,6.372 6.372,1.000 13.000,1.000 Z"/>
<path fill-rule="evenodd"  fill="rgb(161, 158, 163)"
 d="M41.146,38.399 L41.146,28.498 L37.846,28.498 L37.846,38.399 L27.946,38.399 L27.946,41.700 L37.846,41.700 L37.846,51.601 L41.146,51.601 L41.146,41.700 L51.046,41.700 L51.046,38.399 L41.146,38.399 Z"/>
</svg>