<svg 
 xmlns="http://www.w3.org/2000/svg"
 xmlns:xlink="http://www.w3.org/1999/xlink"
 width="2.081cm" height="1.729cm">
<path fill-rule="evenodd"  fill="rgb(227, 169, 251)"
 d="M49.240,26.899 C49.099,26.829 48.956,26.794 48.815,26.794 C48.507,26.794 48.235,26.911 47.999,27.143 L45.729,29.370 C45.515,29.579 45.408,29.834 45.408,30.136 L45.408,38.977 C45.408,40.508 44.852,41.819 43.741,42.910 C42.630,44.001 41.293,44.546 39.732,44.546 L10.214,44.546 C8.653,44.546 7.317,44.001 6.205,42.910 C5.093,41.819 4.538,40.508 4.538,38.977 L4.538,10.018 C4.538,8.486 5.093,7.176 6.205,6.085 C7.317,4.994 8.653,4.449 10.214,4.449 L39.732,4.449 C40.253,4.449 40.785,4.519 41.328,4.658 C41.471,4.705 41.578,4.727 41.648,4.727 C41.955,4.727 42.227,4.612 42.464,4.379 L44.202,2.674 C44.486,2.396 44.593,2.059 44.522,1.664 C44.451,1.294 44.238,1.027 43.883,0.864 C42.605,0.284 41.222,-0.006 39.732,-0.006 L10.214,-0.006 C7.399,-0.006 4.993,0.974 2.994,2.935 C0.996,4.896 -0.004,7.257 -0.004,10.018 L-0.004,38.977 C-0.004,41.738 0.996,44.099 2.994,46.060 C4.993,48.021 7.399,49.001 10.214,49.001 L39.732,49.001 C42.547,49.001 44.953,48.021 46.953,46.060 C48.951,44.099 49.950,41.738 49.950,38.977 L49.950,27.908 C49.950,27.421 49.714,27.085 49.240,26.899 L49.240,26.899 Z"/>
<path fill-rule="evenodd"  fill="rgb(110, 23, 153)"
 d="M58.997,8.904 C58.997,8.138 58.713,7.477 58.145,6.920 L54.243,3.092 C53.675,2.534 53.001,2.256 52.221,2.256 C51.441,2.256 50.766,2.534 50.199,3.092 L27.244,25.611 L17.914,16.457 C17.345,15.900 16.672,15.622 15.891,15.622 C15.111,15.622 14.436,15.900 13.868,16.457 L9.966,20.286 C9.398,20.843 9.115,21.504 9.115,22.269 C9.115,23.035 9.398,23.697 9.966,24.254 L25.222,39.220 C25.789,39.777 26.464,40.056 27.244,40.056 C28.024,40.056 28.698,39.777 29.266,39.220 L58.145,10.888 C58.713,10.331 58.997,9.670 58.997,8.904 Z"/>
</svg>