<svg 
 xmlns="http://www.w3.org/2000/svg"
 xmlns:xlink="http://www.w3.org/1999/xlink"
 width="2.046cm" height="1.976cm">
<path fill-rule="evenodd"  fill="rgb(110, 23, 153)"
 d="M44.977,19.311 C44.405,19.980 43.595,20.325 42.781,20.325 C42.200,20.325 41.621,20.139 41.120,19.783 C40.277,19.652 39.423,19.565 38.554,19.565 C34.075,19.565 29.867,21.319 26.702,24.505 C25.725,25.487 24.901,26.577 24.204,27.736 L24.204,24.180 C24.204,23.373 23.557,22.721 22.759,22.721 L16.840,22.721 C16.038,22.721 15.389,23.374 15.389,24.180 L15.389,30.134 C15.389,30.940 16.038,31.593 16.840,31.593 L22.492,31.593 C22.123,32.845 21.910,34.148 21.837,35.479 L16.840,35.479 C16.038,35.479 15.389,36.132 15.389,36.937 L15.389,42.892 C15.389,43.698 16.038,44.349 16.840,44.349 L22.759,44.349 C23.081,44.349 23.364,44.222 23.605,44.042 C24.400,45.611 25.428,47.068 26.702,48.348 C27.372,49.025 28.104,49.624 28.866,50.171 L7.037,50.171 C6.234,50.171 5.586,49.518 5.586,48.714 L5.586,24.739 C5.586,24.637 5.629,24.545 5.649,24.447 L4.784,25.194 C3.572,26.241 1.745,26.105 0.700,24.884 C-0.342,23.663 -0.207,21.823 1.009,20.772 L24.247,0.699 C25.332,-0.241 26.937,-0.241 28.023,0.699 L44.671,15.199 C45.884,16.249 46.021,18.089 44.977,19.311 Z"/>
<path fill-rule="evenodd"  fill="rgb(227, 169, 251)"
 d="M57.158,51.026 L53.194,47.035 C52.438,46.273 51.369,46.032 50.402,46.288 L49.322,45.202 C53.732,39.730 53.412,31.655 48.355,26.565 C45.736,23.930 42.255,22.480 38.553,22.480 C34.851,22.480 31.366,23.930 28.750,26.565 C26.131,29.200 24.688,32.702 24.688,36.425 C24.688,40.152 26.131,43.652 28.750,46.286 C31.366,48.924 34.851,50.375 38.553,50.375 C41.765,50.375 44.812,49.278 47.274,47.263 L48.355,48.351 C48.101,49.321 48.339,50.393 49.093,51.154 L53.057,55.145 C53.622,55.717 54.365,55.999 55.106,55.999 C55.847,55.999 56.590,55.717 57.155,55.147 C58.286,54.010 58.286,52.164 57.158,51.026 L57.158,51.026 ZM30.798,44.226 C28.725,42.142 27.586,39.372 27.586,36.425 C27.586,33.481 28.725,30.711 30.798,28.626 C32.870,26.544 35.623,25.395 38.553,25.395 C41.482,25.395 44.231,26.544 46.308,28.626 C50.580,32.927 50.580,39.923 46.308,44.223 C46.308,44.224 46.308,44.224 46.308,44.226 C46.308,44.226 46.308,44.227 46.305,44.227 C44.230,46.311 41.481,47.460 38.553,47.460 C35.624,47.459 32.871,46.311 30.798,44.226 L30.798,44.226 Z"/>
</svg>