<svg 
 xmlns="http://www.w3.org/2000/svg"
 xmlns:xlink="http://www.w3.org/1999/xlink"
 width="1.658cm" height="2.117cm">
<path fill-rule="evenodd"  fill="rgb(110, 23, 153)"
 d="M32.295,41.864 L29.036,46.869 L29.036,59.533 C29.036,59.789 28.828,59.998 28.575,59.998 L18.422,59.998 C18.167,59.998 17.960,59.789 17.960,59.533 L17.960,46.869 L14.699,41.864 C14.651,41.788 14.624,41.700 14.624,41.609 L14.624,32.460 C14.624,30.453 15.892,28.678 17.790,28.040 C17.790,28.040 19.365,27.559 19.410,27.559 C19.599,27.559 19.753,27.687 19.843,27.866 C20.514,29.202 22.055,31.692 22.968,32.960 C23.277,33.389 23.720,33.391 24.028,32.960 C24.932,31.692 26.481,29.202 27.152,27.866 C27.263,27.644 27.487,27.508 27.721,27.580 L29.207,28.041 L29.216,28.043 C31.098,28.665 32.371,30.437 32.371,32.436 L32.371,41.609 C32.371,41.700 32.345,41.788 32.295,41.864 ZM23.498,25.498 C20.628,25.498 18.292,23.142 18.292,20.246 C18.292,17.350 20.628,14.994 23.498,14.994 C26.369,14.994 28.704,17.350 28.704,20.246 C28.704,23.142 26.369,25.498 23.498,25.498 Z"/>
<path fill-rule="evenodd"  fill="rgb(227, 169, 251)"
 d="M45.306,17.602 L41.659,17.602 C41.372,16.737 41.025,15.893 40.619,15.075 L43.199,12.473 C43.861,11.806 43.861,10.724 43.199,10.058 L37.031,3.835 C36.370,3.169 35.298,3.169 34.638,3.835 L32.057,6.438 C31.247,6.028 30.410,5.678 29.552,5.389 L29.552,1.710 C29.552,0.767 28.794,0.003 27.860,0.003 L19.136,0.003 C18.202,0.003 17.443,0.767 17.443,1.710 L17.443,5.389 C16.586,5.678 15.750,6.028 14.939,6.438 L12.359,3.836 C11.698,3.169 10.625,3.169 9.964,3.836 L3.796,10.058 C3.479,10.378 3.300,10.812 3.300,11.265 C3.300,11.719 3.479,12.153 3.796,12.473 L6.376,15.075 C5.970,15.893 5.623,16.737 5.337,17.602 L1.690,17.602 C0.755,17.602 -0.003,18.368 -0.003,19.310 L-0.003,28.110 C-0.003,29.054 0.755,29.818 1.690,29.818 L5.337,29.818 C5.623,30.683 5.970,31.527 6.376,32.345 L3.796,34.947 C3.479,35.268 3.300,35.702 3.300,36.155 C3.300,36.608 3.479,37.042 3.796,37.363 L9.964,43.584 C10.625,44.251 11.697,44.251 12.359,43.584 L12.578,43.364 L12.536,43.298 C12.207,42.794 12.035,42.211 12.035,41.608 L12.035,32.459 C12.035,30.917 12.517,29.462 13.358,28.264 C12.741,26.871 12.395,25.331 12.395,23.710 C12.395,17.534 17.376,12.510 23.498,12.510 C29.620,12.510 34.601,17.534 34.601,23.710 C34.601,25.326 34.256,26.863 33.643,28.252 C34.480,29.445 34.960,30.895 34.960,32.436 L34.960,41.608 C34.960,42.209 34.788,42.793 34.460,43.297 L34.416,43.364 L34.637,43.584 C35.297,44.251 36.369,44.251 37.031,43.584 L43.199,37.363 C43.516,37.042 43.695,36.608 43.695,36.155 C43.695,35.702 43.516,35.268 43.199,34.947 L40.619,32.345 C41.025,31.527 41.372,30.682 41.659,29.818 L45.305,29.818 C46.241,29.818 46.998,29.053 46.998,28.110 L46.998,19.310 C46.998,18.368 46.241,17.602 45.306,17.602 L45.306,17.602 Z"/>
</svg>